# xmcd
#
# Track frame offsets:
#	150
#	26176
#	55752
#	69682
#	94274
#	131041
#	155794
#	179677
#	202018
#	236892
#
# Disc length: 3408 seconds
#
# Revision: 3
# Processed by: cddbd v1.5PL3 Copyright (c) Steve Scherf et al.
# Submitted via: EasyCDDAExtractor 7.0.5.1
#
DISCID=9d0d4e0a
DTITLE=Blindside Blues Band - To The Station
DYEAR=1996
DGENRE=Blues
TTITLE0=To The Station
TTITLE1=I'm Not Your Man
TTITLE2=Take His Keys
TTITLE3=Whirlwind
TTITLE4=Natural Thang
TTITLE5=Worn Out Shoe
TTITLE6=Fade Away
TTITLE7=Get Outta My Way
TTITLE8=Hurting Me
TTITLE9=All I Need
EXTD=1996 Shrapnel Records\n
EXTT0=
EXTT1=
EXTT2=
EXTT3=
EXTT4=
EXTT5=
EXTT6=
EXTT7=
EXTT8=
EXTT9=
PLAYORDER=
